# xmcd
#
# Track frame offsets:
#  150
#  28962
#  61425
#  83250
#  101475
#  123000
#  134625
#  163125
#
# Disc length: 2628 seconds
#
# Revision: 1
# Processed by: cddbd v1.5.1PL2 Copyright (c) Steve Scherf et al.
# Submitted via: Collectorz.com_Music_Collector 6.10
#
DISCID=640a4208
DTITLE=Lightnin' Hopkins - Lightnin' In New York
DYEAR=1900
DGENRE=Blues
TTITLE0=Take It Easy
TTITLE1=Mighty Crazy
TTITLE2=Your Own Fault, Baby, To Treat Me The Way You Do
TTITLE3=I Had My Fun, If I Don't Get Well No More
TTITLE4=The Trouble Blues
TTITLE5=Lightnin's Piano Boogie
TTITLE6=Wonder Why
TTITLE7=Mister Charlie
EXTD=
EXTT0=
EXTT1=
EXTT2=
EXTT3=
EXTT4=
EXTT5=
EXTT6=
EXTT7=
PLAYORDER=
